<svg width="65" height="50" viewBox="0 0 65 50" fill="none" xmlns="http://www.w3.org/2000/svg">
<path d="M0 41.7357L7.19735 37.2814C8.58609 39.7989 9.84917 41.9292 12.8791 41.9292C15.7835 41.9292 17.6149 40.7675 17.6149 36.2486V5.51696H26.4534V36.3763C26.4534 45.7376 21.0873 49.9989 13.258 49.9989C6.18736 49.9989 2.08351 46.2549 0 41.7357ZM31.2543 40.7671L38.4509 36.5064C40.3456 39.6701 42.8079 41.9942 47.1637 41.9942C50.8263 41.9942 53.1614 40.1216 53.1614 37.5391C53.1614 34.4404 50.7623 33.3426 46.7218 31.5354L44.5127 30.5661C38.1356 27.7908 33.9057 24.3043 33.9057 16.9444C33.9057 10.1652 38.9564 5 46.8484 5C52.4675 5 56.5082 7.00173 59.4119 12.2311L52.53 16.7508C51.0144 13.9748 49.3737 12.8772 46.8482 12.8772C44.2595 12.8772 42.6179 14.5559 42.6179 16.7508C42.6179 19.4623 44.2595 20.5605 48.0472 22.2391L50.2568 23.2073C57.7702 26.5003 62 29.8572 62 37.4102C62 45.5457 55.7497 50 47.3528 50C39.1457 50 33.8426 45.9968 31.2543 40.7671Z" fill="#0D59EB"/>
</svg>
