<svg width="81" height="64" viewBox="0 0 81 64" fill="none" xmlns="http://www.w3.org/2000/svg">
<path d="M49.7145 0.156733C47.5628 -0.455639 45.3224 0.781601 44.7022 2.90616L28.501 58.8942C27.8808 61.0188 29.1338 63.231 31.2855 63.8433C33.4372 64.4556 35.6776 63.2184 36.2978 61.0938L52.499 5.10569C53.1192 2.98114 51.8662 0.769103 49.7145 0.156733ZM59.9161 15.1661C58.3341 16.7282 58.3341 19.2652 59.9161 20.8275L71.2191 32L59.9037 43.1725C58.3215 44.7348 58.3215 47.2719 59.9037 48.8339C61.4856 50.3961 64.0552 50.3961 65.6372 48.8339L79.8135 34.8369C81.3954 33.2748 81.3954 30.7378 79.8135 29.1755L65.6372 15.1786C64.0552 13.6164 61.4856 13.6164 59.9037 15.1786L59.9161 15.1661ZM21.0966 15.1661C19.5143 13.6039 16.9449 13.6039 15.3627 15.1661L1.18662 29.1632C-0.395539 30.7254 -0.395539 33.2622 1.18662 34.8245L15.3627 48.8215C16.9449 50.3837 19.5143 50.3837 21.0966 48.8215C22.6785 47.2593 22.6785 44.7224 21.0966 43.1602L9.78088 32L21.0966 20.8275C22.6785 19.2652 22.6785 16.7282 21.0966 15.1661Z" fill="#1C59DD"/>
</svg>
