<svg width="62" height="65" viewBox="0 0 62 65" fill="none" xmlns="http://www.w3.org/2000/svg">
<path d="M31.2691 5.41669C17.079 5.41669 17.9645 11.5875 17.9645 11.5875L17.982 17.9808H31.5223V19.8988H12.6005C12.6005 19.8988 3.52295 18.8654 3.52295 33.2249C3.52295 47.5808 11.4477 47.0729 11.4477 47.0729H16.1777V40.4099C16.1777 40.4099 15.9227 32.4629 23.9766 32.4629H37.4052C37.4052 32.4629 44.9508 32.5855 44.9508 25.15V12.8557C44.9508 12.8557 46.0967 5.41669 31.2691 5.41669ZM23.802 9.71508C25.1487 9.71508 26.2386 10.8081 26.2386 12.1585C26.2386 13.509 25.1487 14.602 23.802 14.602C23.4819 14.6025 23.1648 14.5396 22.869 14.4169C22.5731 14.2943 22.3043 14.1143 22.078 13.8874C21.8516 13.6604 21.6722 13.3908 21.5499 13.0942C21.4276 12.7975 21.3649 12.4795 21.3653 12.1585C21.3653 10.8081 22.4553 9.71508 23.802 9.71508Z" fill="#08549A"/>
<path d="M31.6706 61.1749C45.8607 61.1749 44.9751 55.004 44.9751 55.004L44.9576 48.6108H31.4173V46.6928H50.3374C50.3374 46.6928 59.4167 47.7262 59.4167 33.3685C59.4167 19.0107 51.492 19.5204 51.492 19.5204H46.7619V26.1817C46.7619 26.1817 47.017 34.1286 38.963 34.1286H25.5345C25.5345 34.1286 17.9888 34.006 17.9888 41.4415V53.7359C17.9888 53.7359 16.843 61.1749 31.6706 61.1749ZM39.1377 56.8765C38.8176 56.877 38.5005 56.8141 38.2047 56.6914C37.9088 56.5688 37.64 56.3888 37.4137 56.1618C37.1873 55.9349 37.0079 55.6653 36.8856 55.3686C36.7633 55.072 36.7006 54.754 36.701 54.433C36.701 53.0843 37.791 51.9913 39.1377 51.9913C40.4844 51.9913 41.5743 53.0826 41.5743 54.433C41.5743 55.7853 40.4844 56.8765 39.1377 56.8765Z" fill="#0E47B9"/>
</svg>
